# xmcd
#
# Track frame offsets: 
#        150
#        18661
#        43002
#        66763
#        82306
#        101880
#        134423
#        154549
#        178205
#
# Disc length: 2640 seconds
#
# Revision: 0
# Processed by: cddbd v1.5.2PL0 Copyright (c) Steve Scherf et al.
# Submitted via: ExactAudioCopyFreeDBPlugin 1.0
#
DISCID=7f0a4e09
DTITLE=Mississippi Fred McDowell - Shake 'Em On Down
DYEAR=2010
DGENRE=Blues
TTITLE0=Shake 'Em On Down
TTITLE1=I'm Crazy About You Baby
TTITLE2=John Henry
TTITLE3=You Got To Move
TTITLE4=Someday
TTITLE5=Mercy
TTITLE6=The Lovin' Blues
TTITLE7=White Lightnin'
TTITLE8=Baby Please Don't Go
EXTD=
EXTT0=
EXTT1=
EXTT2=
EXTT3=
EXTT4=
EXTT5=
EXTT6=
EXTT7=
EXTT8=
PLAYORDER=
